<svg width="3564" height="206" viewBox="0 0 3564 206" fill="none" xmlns="http://www.w3.org/2000/svg">
<g id="Component 196" clip-path="url(#clip0_7932_54653)">
<g id="Frame 1973342234">
<g id="Frame 1973342232">
<g id="Frame 1973340123">
<path id="Star 2" d="M70.2365 77.7031C70.2365 77.7031 77.2307 89.7012 83.9405 94.7594C93.3433 101.848 112.368 102.982 112.368 102.982C112.368 102.982 93.3433 104.116 83.9405 111.204C77.2307 116.262 70.2365 128.26 70.2365 128.26C70.2365 128.26 63.2424 116.262 56.5326 111.204C47.1297 104.116 28.1055 102.982 28.1055 102.982C28.1055 102.982 47.1297 101.848 56.5326 94.7594C63.2424 89.7012 70.2365 77.7031 70.2365 77.7031Z" fill="#B7B4FB"/>
</g>
<g id="Group 1973340553">
<g id="Lavender" filter="url(#filter0_f_7932_54653)">
<path d="M269.187 174L173.762 174L173.762 42.8954L199.889 42.8954L199.889 149.558L269.187 149.558V174ZM298.614 174H271.363L322.4 42.8954H354.24L405.277 174H377.37L365.946 143.471H310.039L298.614 174ZM338.039 68.7417L319.029 119.404H356.956L338.039 68.7417ZM472.768 174H441.022L391.764 42.8954L419.577 42.8954L457.129 147.498L494.869 42.8954H522.026L472.768 174ZM631.273 174L533.319 174V42.8954L630.524 42.8954V66.8688H559.446V95.8991H627.246V119.873H559.446V150.027L631.273 150.027V174ZM678.661 174H652.44V42.8954L676.882 42.8954L743.464 130.455V42.8954L769.685 42.8954V174H745.15L678.661 86.4408V174ZM847.909 174H793.875V42.8954L847.909 42.8954C888.926 42.8954 915.989 68.929 915.989 108.448C915.989 147.966 888.926 174 847.909 174ZM820.002 67.337V149.558H847.628C875.253 149.558 888.645 132.234 888.645 108.448C888.645 84.3806 875.253 67.337 847.628 67.337L820.002 67.337ZM1031.8 174L933.847 174V42.8954L1031.05 42.8954V66.8688L959.974 66.8688V95.8991L1027.77 95.8991V119.873L959.974 119.873V150.027H1031.8V174ZM1079.09 174H1052.97V42.8954L1108.41 42.8954C1139.68 42.8954 1156.45 57.6915 1156.45 82.7886C1156.45 104.327 1141.46 119.03 1116.27 121.464L1156.63 174L1124.98 174L1086.77 121.839L1079.09 121.839V174ZM1079.09 66.9624V99.0831L1107.94 99.0831C1122.17 99.0831 1129.57 93.8389 1129.57 82.7886C1129.57 71.9257 1121.8 66.9624 1107.94 66.9624L1079.09 66.9624Z" fill="#B7B4FB"/>
</g>
<path id="Lavender_2" d="M269.187 174L173.762 174L173.762 42.8954L199.889 42.8954L199.889 149.558L269.187 149.558V174ZM298.614 174H271.363L322.4 42.8954H354.24L405.277 174H377.37L365.946 143.471H310.039L298.614 174ZM338.039 68.7417L319.029 119.404H356.956L338.039 68.7417ZM472.768 174H441.022L391.764 42.8954L419.577 42.8954L457.129 147.498L494.869 42.8954H522.026L472.768 174ZM631.273 174L533.319 174V42.8954L630.524 42.8954V66.8688H559.446V95.8991H627.246V119.873H559.446V150.027L631.273 150.027V174ZM678.661 174H652.44V42.8954L676.882 42.8954L743.464 130.455V42.8954L769.685 42.8954V174H745.15L678.661 86.4408V174ZM847.909 174H793.875V42.8954L847.909 42.8954C888.926 42.8954 915.989 68.929 915.989 108.448C915.989 147.966 888.926 174 847.909 174ZM820.002 67.337V149.558H847.628C875.253 149.558 888.645 132.234 888.645 108.448C888.645 84.3806 875.253 67.337 847.628 67.337L820.002 67.337ZM1031.8 174L933.847 174V42.8954L1031.05 42.8954V66.8688L959.974 66.8688V95.8991L1027.77 95.8991V119.873L959.974 119.873V150.027H1031.8V174ZM1079.09 174H1052.97V42.8954L1108.41 42.8954C1139.68 42.8954 1156.45 57.6915 1156.45 82.7886C1156.45 104.327 1141.46 119.03 1116.27 121.464L1156.63 174L1124.98 174L1086.77 121.839L1079.09 121.839V174ZM1079.09 66.9624V99.0831L1107.94 99.0831C1122.17 99.0831 1129.57 93.8389 1129.57 82.7886C1129.57 71.9257 1121.8 66.9624 1107.94 66.9624L1079.09 66.9624Z" fill="#B7B4FB"/>
</g>
<g id="Group 1973340558">
<g id="Fantasy" filter="url(#filter1_f_7932_54653)">
<mask id="path-5-outside-1_7932_54653" maskUnits="userSpaceOnUse" x="1196.62" y="36" width="852" height="145" fill="black">
<rect fill="white" x="1196.62" y="36" width="852" height="145"/>
<path d="M1226.95 174H1200.83V42.8954L1297.09 42.8954V66.9624L1226.95 66.9624V96.8356L1292.69 96.8356V120.903L1226.95 120.903V174ZM1323.48 174H1296.23L1347.27 42.8954H1379.11L1430.15 174H1402.24L1390.82 143.471H1334.91L1323.48 174ZM1362.91 68.7417L1343.9 119.404H1381.83L1362.91 68.7417ZM1467.67 174L1441.45 174V42.8954H1465.89L1532.47 130.455V42.8954H1558.69V174H1534.16L1467.67 86.4408V174ZM1637.76 174L1611.63 174V67.337L1570.99 67.337V42.8954L1678.4 42.8954V67.337L1637.76 67.337V174ZM1693.47 174H1666.22L1717.25 42.8954L1749.09 42.8954L1800.13 174H1772.22L1760.8 143.471H1704.89L1693.47 174ZM1732.89 68.7417L1713.88 119.404H1751.81L1732.89 68.7417ZM1859.04 176.341C1839.19 176.341 1817.84 170.535 1803.79 159.204L1817.37 138.134C1826.83 145.719 1842.28 152.274 1859.13 152.274C1873.65 152.274 1884.89 146.562 1884.89 136.448C1884.89 127.364 1875.33 123.993 1857.07 121.09L1848.74 119.779C1825.61 116.127 1808.75 105.919 1808.75 82.2268C1808.75 54.8821 1833.1 40.6479 1861.01 40.6479C1879.36 40.6479 1894.63 44.7683 1911.11 54.6011L1898.75 75.9525C1888.44 69.5845 1875.9 64.8086 1861.57 64.8086C1846.87 64.8086 1836.47 70.6146 1836.47 80.5411C1836.47 90.1867 1847.8 93.0897 1863.54 95.7118L1870.93 96.9292C1894.34 100.769 1912.7 110.789 1912.7 133.639C1912.7 162.575 1887.23 176.341 1859.04 176.341ZM1990.99 174L1964.87 174V122.214L1914.39 42.8954L1945.11 42.8954L1978.07 98.5212L2011.04 42.8954H2040.81L1990.99 122.307V174Z"/>
</mask>
<path d="M1226.95 174V178H1230.95V174H1226.95ZM1200.83 174H1196.83V178H1200.83V174ZM1200.83 42.8954V38.8954H1196.83V42.8954H1200.83ZM1297.09 42.8954H1301.09V38.8954H1297.09V42.8954ZM1297.09 66.9624V70.9624H1301.09V66.9624H1297.09ZM1226.95 66.9624V62.9624H1222.95V66.9624H1226.95ZM1226.95 96.8356H1222.95V100.836H1226.95V96.8356ZM1292.69 96.8356H1296.69V92.8356H1292.69V96.8356ZM1292.69 120.903V124.903H1296.69V120.903H1292.69ZM1226.95 120.903V116.903H1222.95V120.903H1226.95ZM1226.95 170H1200.83V178H1226.95V170ZM1204.83 174V42.8954H1196.83V174H1204.83ZM1200.83 46.8954L1297.09 46.8954V38.8954L1200.83 38.8954V46.8954ZM1293.09 42.8954V66.9624H1301.09V42.8954L1293.09 42.8954ZM1297.09 62.9624L1226.95 62.9624V70.9624L1297.09 70.9624V62.9624ZM1222.95 66.9624V96.8356L1230.95 96.8356V66.9624L1222.95 66.9624ZM1226.95 100.836L1292.69 100.836V92.8356L1226.95 92.8356V100.836ZM1288.69 96.8356V120.903H1296.69V96.8356H1288.69ZM1292.69 116.903L1226.95 116.903V124.903L1292.69 124.903V116.903ZM1222.95 120.903V174H1230.95V120.903L1222.95 120.903ZM1323.48 174V178H1326.26L1327.23 175.402L1323.48 174ZM1296.23 174L1292.51 172.549L1290.38 178H1296.23V174ZM1347.27 42.8954V38.8954H1344.53L1343.54 41.4443L1347.27 42.8954ZM1379.11 42.8954L1382.84 41.4443L1381.84 38.8954H1379.11V42.8954ZM1430.15 174V178H1436L1433.87 172.549L1430.15 174ZM1402.24 174L1398.49 175.402L1399.47 178H1402.24V174ZM1390.82 143.471L1394.56 142.069L1393.59 139.471H1390.82V143.471ZM1334.91 143.471V139.471H1332.13L1331.16 142.069L1334.91 143.471ZM1362.91 68.7417L1366.66 67.3425L1362.92 57.3312L1359.16 67.3365L1362.91 68.7417ZM1343.9 119.404L1340.15 117.999L1338.13 123.404H1343.9V119.404ZM1381.83 119.404V123.404H1387.59L1385.57 118.005L1381.83 119.404ZM1323.48 170H1296.23V178H1323.48V170ZM1299.96 175.451L1351 44.3464L1343.54 41.4443L1292.51 172.549L1299.96 175.451ZM1347.27 46.8954H1379.11V38.8954H1347.27V46.8954ZM1375.38 44.3464L1426.42 175.451L1433.87 172.549L1382.84 41.4443L1375.38 44.3464ZM1430.15 170H1402.24V178H1430.15V170ZM1405.99 172.598L1394.56 142.069L1387.07 144.873L1398.49 175.402L1405.99 172.598ZM1390.82 139.471H1334.91V147.471H1390.82V139.471ZM1331.16 142.069L1319.74 172.598L1327.23 175.402L1338.65 144.873L1331.16 142.069ZM1359.16 67.3365L1340.15 117.999L1347.64 120.81L1366.65 70.147L1359.16 67.3365ZM1343.9 123.404H1381.83V115.404H1343.9V123.404ZM1385.57 118.005L1366.66 67.3425L1359.16 70.1409L1378.08 120.803L1385.57 118.005ZM1467.67 174V178H1471.67V174H1467.67ZM1441.45 174H1437.45V178H1441.45V174ZM1441.45 42.8954V38.8954H1437.45V42.8954H1441.45ZM1465.89 42.8954L1469.07 40.4742L1467.87 38.8954H1465.89V42.8954ZM1532.47 130.455L1529.29 132.876L1536.47 142.323V130.455H1532.47ZM1532.47 42.8954V38.8954H1528.47V42.8954H1532.47ZM1558.69 42.8954L1562.69 42.8954V38.8954L1558.69 38.8954V42.8954ZM1558.69 174V178H1562.69V174H1558.69ZM1534.16 174L1530.97 176.419L1532.17 178H1534.16V174ZM1467.67 86.4408L1470.85 84.0218L1463.67 74.559V86.4408H1467.67ZM1467.67 170L1441.45 170V178L1467.67 178V170ZM1445.45 174V42.8954H1437.45V174H1445.45ZM1441.45 46.8954H1465.89V38.8954H1441.45V46.8954ZM1462.7 45.3166L1529.29 132.876L1535.65 128.033L1469.07 40.4742L1462.7 45.3166ZM1536.47 130.455V42.8954H1528.47V130.455H1536.47ZM1532.47 46.8954H1558.69V38.8954H1532.47V46.8954ZM1554.69 42.8954V174H1562.69V42.8954L1554.69 42.8954ZM1558.69 170H1534.16V178H1558.69V170ZM1537.34 171.581L1470.85 84.0218L1464.48 88.8599L1530.97 176.419L1537.34 171.581ZM1463.67 86.4408V174H1471.67V86.4408H1463.67ZM1637.76 174V178H1641.76V174H1637.76ZM1611.63 174H1607.63V178H1611.63V174ZM1611.63 67.337H1615.63V63.337H1611.63V67.337ZM1570.99 67.337H1566.99V71.337H1570.99V67.337ZM1570.99 42.8954V38.8954H1566.99V42.8954H1570.99ZM1678.4 42.8954H1682.4V38.8954H1678.4V42.8954ZM1678.4 67.337V71.337H1682.4V67.337H1678.4ZM1637.76 67.337V63.337H1633.76V67.337H1637.76ZM1637.76 170L1611.63 170V178L1637.76 178V170ZM1615.63 174V67.337H1607.63V174H1615.63ZM1611.63 63.337L1570.99 63.337V71.337L1611.63 71.337V63.337ZM1574.99 67.337V42.8954H1566.99V67.337H1574.99ZM1570.99 46.8954L1678.4 46.8954V38.8954L1570.99 38.8954V46.8954ZM1674.4 42.8954V67.337H1682.4V42.8954H1674.4ZM1678.4 63.337L1637.76 63.337V71.337L1678.4 71.337V63.337ZM1633.76 67.337V174H1641.76V67.337H1633.76ZM1693.47 174V178H1696.24L1697.21 175.402L1693.47 174ZM1666.22 174L1662.49 172.549L1660.37 178H1666.22V174ZM1717.25 42.8954V38.8954H1714.52L1713.52 41.4443L1717.25 42.8954ZM1749.09 42.8954L1752.82 41.4443L1751.83 38.8954H1749.09V42.8954ZM1800.13 174V178L1805.98 178L1803.86 172.549L1800.13 174ZM1772.22 174L1768.48 175.402L1769.45 178H1772.22V174ZM1760.8 143.471L1764.54 142.069L1763.57 139.471H1760.8V143.471ZM1704.89 143.471V139.471H1702.12L1701.14 142.069L1704.89 143.471ZM1732.89 68.7417L1736.64 67.3425L1732.9 57.3312L1729.15 67.3365L1732.89 68.7417ZM1713.88 119.404L1710.14 117.999L1708.11 123.404H1713.88V119.404ZM1751.81 119.404V123.404H1757.57L1755.56 118.005L1751.81 119.404ZM1693.47 170H1666.22V178H1693.47V170ZM1669.94 175.451L1720.98 44.3464L1713.52 41.4443L1662.49 172.549L1669.94 175.451ZM1717.25 46.8954L1749.09 46.8954V38.8954L1717.25 38.8954V46.8954ZM1745.36 44.3464L1796.4 175.451L1803.86 172.549L1752.82 41.4443L1745.36 44.3464ZM1800.13 170H1772.22V178H1800.13V170ZM1775.97 172.598L1764.54 142.069L1757.05 144.873L1768.48 175.402L1775.97 172.598ZM1760.8 139.471H1704.89V147.471H1760.8V139.471ZM1701.14 142.069L1689.72 172.598L1697.21 175.402L1708.64 144.873L1701.14 142.069ZM1729.15 67.3365L1710.14 117.999L1717.63 120.81L1736.64 70.147L1729.15 67.3365ZM1713.88 123.404H1751.81V115.404H1713.88V123.404ZM1755.56 118.005L1736.64 67.3425L1729.14 70.1409L1748.06 120.803L1755.56 118.005ZM1803.79 159.204L1800.43 157.037L1798.48 160.06L1801.28 162.317L1803.79 159.204ZM1817.37 138.134L1819.87 135.013L1816.41 132.237L1814.01 135.967L1817.37 138.134ZM1857.07 121.09L1857.7 117.14L1857.7 117.139L1857.07 121.09ZM1848.74 119.779L1848.12 123.73L1848.12 123.73L1848.74 119.779ZM1911.11 54.6011L1914.57 56.6053L1916.55 53.1887L1913.16 51.166L1911.11 54.6011ZM1898.75 75.9525L1896.64 79.3548L1900.14 81.5198L1902.21 77.9566L1898.75 75.9525ZM1863.54 95.7118L1862.88 99.6574L1862.89 99.6587L1863.54 95.7118ZM1870.93 96.9292L1870.28 100.876L1870.29 100.876L1870.93 96.9292ZM1859.04 172.341C1839.81 172.341 1819.44 166.688 1806.3 156.091L1801.28 162.317C1816.23 174.382 1838.57 180.341 1859.04 180.341V172.341ZM1807.15 161.371L1820.73 140.3L1814.01 135.967L1800.43 157.037L1807.15 161.371ZM1814.86 141.254C1824.99 149.376 1841.32 156.274 1859.13 156.274V148.274C1843.24 148.274 1828.66 142.062 1819.87 135.013L1814.86 141.254ZM1859.13 156.274C1866.84 156.274 1874.04 154.769 1879.47 151.61C1885 148.388 1888.89 143.264 1888.89 136.448H1880.89C1880.89 139.746 1879.15 142.535 1875.44 144.697C1871.62 146.923 1865.94 148.274 1859.13 148.274V156.274ZM1888.89 136.448C1888.89 133.42 1888.07 130.67 1886.35 128.286C1884.68 125.962 1882.32 124.23 1879.62 122.875C1874.33 120.225 1866.81 118.588 1857.7 117.14L1856.45 125.04C1865.6 126.495 1871.98 127.995 1876.04 130.027C1878 131.013 1879.18 132.009 1879.86 132.963C1880.51 133.856 1880.89 134.934 1880.89 136.448H1888.89ZM1857.7 117.139L1849.36 115.827L1848.12 123.73L1856.45 125.041L1857.7 117.139ZM1849.36 115.828C1838.13 114.054 1828.95 110.757 1822.64 105.455C1816.51 100.304 1812.75 92.9862 1812.75 82.2268H1804.75C1804.75 95.1598 1809.42 104.792 1817.5 111.58C1825.4 118.219 1836.22 121.852 1848.12 123.73L1849.36 115.828ZM1812.75 82.2268C1812.75 69.9084 1818.17 60.6853 1826.77 54.4159C1835.5 48.0568 1847.67 44.6479 1861.01 44.6479V36.6479C1846.43 36.6479 1832.48 40.356 1822.06 47.9502C1811.51 55.6341 1804.75 67.2004 1804.75 82.2268H1812.75ZM1861.01 44.6479C1878.64 44.6479 1893.19 48.5708 1909.06 58.0363L1913.16 51.166C1896.06 40.9658 1880.09 36.6479 1861.01 36.6479V44.6479ZM1907.65 52.597L1895.28 73.9483L1902.21 77.9566L1914.57 56.6053L1907.65 52.597ZM1900.85 72.5501C1890.08 65.8932 1876.81 60.8086 1861.57 60.8086V68.8086C1874.98 68.8086 1886.81 73.2758 1896.64 79.3548L1900.85 72.5501ZM1861.57 60.8086C1853.77 60.8086 1846.7 62.3378 1841.43 65.5328C1836.03 68.8094 1832.47 73.9281 1832.47 80.5411H1840.47C1840.47 77.2277 1842.11 74.4801 1845.58 72.372C1849.19 70.1823 1854.67 68.8086 1861.57 68.8086V60.8086ZM1832.47 80.5411C1832.47 83.8106 1833.46 86.6775 1835.34 89.079C1837.16 91.4055 1839.66 93.0907 1842.4 94.3793C1847.77 96.9092 1855.08 98.3575 1862.88 99.6574L1864.19 91.7662C1856.26 90.444 1850.03 89.1297 1845.81 87.1412C1843.75 86.1707 1842.43 85.1576 1841.64 84.145C1840.9 83.2075 1840.47 82.0944 1840.47 80.5411H1832.47ZM1862.89 99.6587L1870.28 100.876L1871.58 92.9823L1864.18 91.7649L1862.89 99.6587ZM1870.29 100.876C1881.7 102.748 1891.38 106.062 1898.14 111.313C1904.7 116.414 1908.7 123.477 1908.7 133.639H1916.7C1916.7 120.95 1911.52 111.578 1903.05 104.997C1894.78 98.566 1883.58 94.9495 1871.58 92.9819L1870.29 100.876ZM1908.7 133.639C1908.7 146.755 1903.01 156.242 1894.12 162.585C1885.08 169.032 1872.55 172.341 1859.04 172.341V180.341C1873.72 180.341 1888.01 176.768 1898.76 169.097C1909.66 161.323 1916.7 149.459 1916.7 133.639H1908.7ZM1990.99 174V178H1994.99V174H1990.99ZM1964.87 174H1960.87V178H1964.87V174ZM1964.87 122.214H1968.87V121.049L1968.24 120.066L1964.87 122.214ZM1914.39 42.8954V38.8954H1907.11L1911.02 45.0429L1914.39 42.8954ZM1945.11 42.8954L1948.55 40.8562L1947.39 38.8954H1945.11V42.8954ZM1978.07 98.5212L1974.63 100.56L1978.07 106.367L1981.51 100.56L1978.07 98.5212ZM2011.04 42.8954V38.8954H2008.76L2007.59 40.8562L2011.04 42.8954ZM2040.81 42.8954L2044.2 45.0211L2048.05 38.8954L2040.81 38.8954V42.8954ZM1990.99 122.307L1987.61 120.182L1986.99 121.156V122.307H1990.99ZM1990.99 170L1964.87 170V178L1990.99 178V170ZM1968.87 174V122.214H1960.87V174H1968.87ZM1968.24 120.066L1917.77 40.7479L1911.02 45.0429L1961.49 124.361L1968.24 120.066ZM1914.39 46.8954L1945.11 46.8954V38.8954L1914.39 38.8954V46.8954ZM1941.67 44.9346L1974.63 100.56L1981.51 96.482L1948.55 40.8562L1941.67 44.9346ZM1981.51 100.56L2014.48 44.9346L2007.59 40.8562L1974.63 96.482L1981.51 100.56ZM2011.04 46.8954H2040.81V38.8954H2011.04V46.8954ZM2037.43 40.7696L1987.61 120.182L1994.38 124.433L2044.2 45.0211L2037.43 40.7696ZM1986.99 122.307V174H1994.99V122.307H1986.99Z" fill="#B7B4FB" mask="url(#path-5-outside-1_7932_54653)"/>
</g>
<g id="Fantasy_2">
<mask id="path-7-outside-2_7932_54653" maskUnits="userSpaceOnUse" x="1196.62" y="36" width="852" height="145" fill="black">
<rect fill="white" x="1196.62" y="36" width="852" height="145"/>
<path d="M1226.95 174H1200.83V42.8954L1297.09 42.8954V66.9624L1226.95 66.9624V96.8356L1292.69 96.8356V120.903L1226.95 120.903V174ZM1323.48 174H1296.23L1347.27 42.8954H1379.11L1430.15 174H1402.24L1390.82 143.471H1334.91L1323.48 174ZM1362.91 68.7417L1343.9 119.404H1381.83L1362.91 68.7417ZM1467.67 174L1441.45 174V42.8954H1465.89L1532.47 130.455V42.8954H1558.69V174H1534.16L1467.67 86.4408V174ZM1637.76 174L1611.63 174V67.337L1570.99 67.337V42.8954L1678.4 42.8954V67.337L1637.76 67.337V174ZM1693.47 174H1666.22L1717.25 42.8954L1749.09 42.8954L1800.13 174H1772.22L1760.8 143.471H1704.89L1693.47 174ZM1732.89 68.7417L1713.88 119.404H1751.81L1732.89 68.7417ZM1859.04 176.341C1839.19 176.341 1817.84 170.535 1803.79 159.204L1817.37 138.134C1826.83 145.719 1842.28 152.274 1859.13 152.274C1873.65 152.274 1884.89 146.562 1884.89 136.448C1884.89 127.364 1875.33 123.993 1857.07 121.09L1848.74 119.779C1825.61 116.127 1808.75 105.919 1808.75 82.2268C1808.75 54.8821 1833.1 40.6479 1861.01 40.6479C1879.36 40.6479 1894.63 44.7683 1911.11 54.6011L1898.75 75.9525C1888.44 69.5845 1875.9 64.8086 1861.57 64.8086C1846.87 64.8086 1836.47 70.6146 1836.47 80.5411C1836.47 90.1867 1847.8 93.0897 1863.54 95.7118L1870.93 96.9292C1894.34 100.769 1912.7 110.789 1912.7 133.639C1912.7 162.575 1887.23 176.341 1859.04 176.341ZM1990.99 174L1964.87 174V122.214L1914.39 42.8954L1945.11 42.8954L1978.07 98.5212L2011.04 42.8954H2040.81L1990.99 122.307V174Z"/>
</mask>
<path d="M1226.95 174V178H1230.95V174H1226.95ZM1200.83 174H1196.83V178H1200.83V174ZM1200.83 42.8954V38.8954H1196.83V42.8954H1200.83ZM1297.09 42.8954H1301.09V38.8954H1297.09V42.8954ZM1297.09 66.9624V70.9624H1301.09V66.9624H1297.09ZM1226.95 66.9624V62.9624H1222.95V66.9624H1226.95ZM1226.95 96.8356H1222.95V100.836H1226.95V96.8356ZM1292.69 96.8356H1296.69V92.8356H1292.69V96.8356ZM1292.69 120.903V124.903H1296.69V120.903H1292.69ZM1226.95 120.903V116.903H1222.95V120.903H1226.95ZM1226.95 170H1200.83V178H1226.95V170ZM1204.83 174V42.8954H1196.83V174H1204.83ZM1200.83 46.8954L1297.09 46.8954V38.8954L1200.83 38.8954V46.8954ZM1293.09 42.8954V66.9624H1301.09V42.8954L1293.09 42.8954ZM1297.09 62.9624L1226.95 62.9624V70.9624L1297.09 70.9624V62.9624ZM1222.95 66.9624V96.8356L1230.95 96.8356V66.9624L1222.95 66.9624ZM1226.95 100.836L1292.69 100.836V92.8356L1226.95 92.8356V100.836ZM1288.69 96.8356V120.903H1296.69V96.8356H1288.69ZM1292.69 116.903L1226.95 116.903V124.903L1292.69 124.903V116.903ZM1222.95 120.903V174H1230.95V120.903L1222.95 120.903ZM1323.48 174V178H1326.26L1327.23 175.402L1323.48 174ZM1296.23 174L1292.51 172.549L1290.38 178H1296.23V174ZM1347.27 42.8954V38.8954H1344.53L1343.54 41.4443L1347.27 42.8954ZM1379.11 42.8954L1382.84 41.4443L1381.84 38.8954H1379.11V42.8954ZM1430.15 174V178H1436L1433.87 172.549L1430.15 174ZM1402.24 174L1398.49 175.402L1399.47 178H1402.24V174ZM1390.82 143.471L1394.56 142.069L1393.59 139.471H1390.82V143.471ZM1334.91 143.471V139.471H1332.13L1331.16 142.069L1334.91 143.471ZM1362.91 68.7417L1366.66 67.3425L1362.92 57.3312L1359.16 67.3365L1362.91 68.7417ZM1343.9 119.404L1340.15 117.999L1338.13 123.404H1343.9V119.404ZM1381.83 119.404V123.404H1387.59L1385.57 118.005L1381.83 119.404ZM1323.48 170H1296.23V178H1323.48V170ZM1299.96 175.451L1351 44.3464L1343.54 41.4443L1292.51 172.549L1299.96 175.451ZM1347.27 46.8954H1379.11V38.8954H1347.27V46.8954ZM1375.38 44.3464L1426.42 175.451L1433.87 172.549L1382.84 41.4443L1375.38 44.3464ZM1430.15 170H1402.24V178H1430.15V170ZM1405.99 172.598L1394.56 142.069L1387.07 144.873L1398.49 175.402L1405.99 172.598ZM1390.82 139.471H1334.91V147.471H1390.82V139.471ZM1331.16 142.069L1319.74 172.598L1327.23 175.402L1338.65 144.873L1331.16 142.069ZM1359.16 67.3365L1340.15 117.999L1347.64 120.81L1366.65 70.147L1359.16 67.3365ZM1343.9 123.404H1381.83V115.404H1343.9V123.404ZM1385.57 118.005L1366.66 67.3425L1359.16 70.1409L1378.08 120.803L1385.57 118.005ZM1467.67 174V178H1471.67V174H1467.67ZM1441.45 174H1437.45V178H1441.45V174ZM1441.45 42.8954V38.8954H1437.45V42.8954H1441.45ZM1465.89 42.8954L1469.07 40.4742L1467.87 38.8954H1465.89V42.8954ZM1532.47 130.455L1529.29 132.876L1536.47 142.323V130.455H1532.47ZM1532.47 42.8954V38.8954H1528.47V42.8954H1532.47ZM1558.69 42.8954L1562.69 42.8954V38.8954L1558.69 38.8954V42.8954ZM1558.69 174V178H1562.69V174H1558.69ZM1534.16 174L1530.97 176.419L1532.17 178H1534.16V174ZM1467.67 86.4408L1470.85 84.0218L1463.67 74.559V86.4408H1467.67ZM1467.67 170L1441.45 170V178L1467.67 178V170ZM1445.45 174V42.8954H1437.45V174H1445.45ZM1441.45 46.8954H1465.89V38.8954H1441.45V46.8954ZM1462.7 45.3166L1529.29 132.876L1535.65 128.033L1469.07 40.4742L1462.7 45.3166ZM1536.47 130.455V42.8954H1528.47V130.455H1536.47ZM1532.47 46.8954H1558.69V38.8954H1532.47V46.8954ZM1554.69 42.8954V174H1562.69V42.8954L1554.69 42.8954ZM1558.69 170H1534.16V178H1558.69V170ZM1537.34 171.581L1470.85 84.0218L1464.48 88.8599L1530.97 176.419L1537.34 171.581ZM1463.67 86.4408V174H1471.67V86.4408H1463.67ZM1637.76 174V178H1641.76V174H1637.76ZM1611.63 174H1607.63V178H1611.63V174ZM1611.63 67.337H1615.63V63.337H1611.63V67.337ZM1570.99 67.337H1566.99V71.337H1570.99V67.337ZM1570.99 42.8954V38.8954H1566.99V42.8954H1570.99ZM1678.4 42.8954H1682.4V38.8954H1678.4V42.8954ZM1678.4 67.337V71.337H1682.4V67.337H1678.4ZM1637.76 67.337V63.337H1633.76V67.337H1637.76ZM1637.76 170L1611.63 170V178L1637.76 178V170ZM1615.63 174V67.337H1607.63V174H1615.63ZM1611.63 63.337L1570.99 63.337V71.337L1611.63 71.337V63.337ZM1574.99 67.337V42.8954H1566.99V67.337H1574.99ZM1570.99 46.8954L1678.4 46.8954V38.8954L1570.99 38.8954V46.8954ZM1674.4 42.8954V67.337H1682.4V42.8954H1674.4ZM1678.4 63.337L1637.76 63.337V71.337L1678.4 71.337V63.337ZM1633.76 67.337V174H1641.76V67.337H1633.76ZM1693.47 174V178H1696.24L1697.21 175.402L1693.47 174ZM1666.22 174L1662.49 172.549L1660.37 178H1666.22V174ZM1717.25 42.8954V38.8954H1714.52L1713.52 41.4443L1717.25 42.8954ZM1749.09 42.8954L1752.82 41.4443L1751.83 38.8954H1749.09V42.8954ZM1800.13 174V178L1805.98 178L1803.86 172.549L1800.13 174ZM1772.22 174L1768.48 175.402L1769.45 178H1772.22V174ZM1760.8 143.471L1764.54 142.069L1763.57 139.471H1760.8V143.471ZM1704.89 143.471V139.471H1702.12L1701.14 142.069L1704.89 143.471ZM1732.89 68.7417L1736.64 67.3425L1732.9 57.3312L1729.15 67.3365L1732.89 68.7417ZM1713.88 119.404L1710.14 117.999L1708.11 123.404H1713.88V119.404ZM1751.81 119.404V123.404H1757.57L1755.56 118.005L1751.81 119.404ZM1693.47 170H1666.22V178H1693.47V170ZM1669.94 175.451L1720.98 44.3464L1713.52 41.4443L1662.49 172.549L1669.94 175.451ZM1717.25 46.8954L1749.09 46.8954V38.8954L1717.25 38.8954V46.8954ZM1745.36 44.3464L1796.4 175.451L1803.86 172.549L1752.82 41.4443L1745.36 44.3464ZM1800.13 170H1772.22V178H1800.13V170ZM1775.97 172.598L1764.54 142.069L1757.05 144.873L1768.48 175.402L1775.97 172.598ZM1760.8 139.471H1704.89V147.471H1760.8V139.471ZM1701.14 142.069L1689.72 172.598L1697.21 175.402L1708.64 144.873L1701.14 142.069ZM1729.15 67.3365L1710.14 117.999L1717.63 120.81L1736.64 70.147L1729.15 67.3365ZM1713.88 123.404H1751.81V115.404H1713.88V123.404ZM1755.56 118.005L1736.64 67.3425L1729.14 70.1409L1748.06 120.803L1755.56 118.005ZM1803.79 159.204L1800.43 157.037L1798.48 160.06L1801.28 162.317L1803.79 159.204ZM1817.37 138.134L1819.87 135.013L1816.41 132.237L1814.01 135.967L1817.37 138.134ZM1857.07 121.09L1857.7 117.14L1857.7 117.139L1857.07 121.09ZM1848.74 119.779L1848.12 123.73L1848.12 123.73L1848.74 119.779ZM1911.11 54.6011L1914.57 56.6053L1916.55 53.1887L1913.16 51.166L1911.11 54.6011ZM1898.75 75.9525L1896.64 79.3548L1900.14 81.5198L1902.21 77.9566L1898.75 75.9525ZM1863.54 95.7118L1862.88 99.6574L1862.89 99.6587L1863.54 95.7118ZM1870.93 96.9292L1870.28 100.876L1870.29 100.876L1870.93 96.9292ZM1859.04 172.341C1839.81 172.341 1819.44 166.688 1806.3 156.091L1801.28 162.317C1816.23 174.382 1838.57 180.341 1859.04 180.341V172.341ZM1807.15 161.371L1820.73 140.3L1814.01 135.967L1800.43 157.037L1807.15 161.371ZM1814.86 141.254C1824.99 149.376 1841.32 156.274 1859.13 156.274V148.274C1843.24 148.274 1828.66 142.062 1819.87 135.013L1814.86 141.254ZM1859.13 156.274C1866.84 156.274 1874.04 154.769 1879.47 151.61C1885 148.388 1888.89 143.264 1888.89 136.448H1880.89C1880.89 139.746 1879.15 142.535 1875.44 144.697C1871.62 146.923 1865.94 148.274 1859.13 148.274V156.274ZM1888.89 136.448C1888.89 133.42 1888.07 130.67 1886.35 128.286C1884.68 125.962 1882.32 124.23 1879.62 122.875C1874.33 120.225 1866.81 118.588 1857.7 117.14L1856.45 125.04C1865.6 126.495 1871.98 127.995 1876.04 130.027C1878 131.013 1879.18 132.009 1879.86 132.963C1880.51 133.856 1880.89 134.934 1880.89 136.448H1888.89ZM1857.7 117.139L1849.36 115.827L1848.12 123.73L1856.45 125.041L1857.7 117.139ZM1849.36 115.828C1838.13 114.054 1828.95 110.757 1822.64 105.455C1816.51 100.304 1812.75 92.9862 1812.75 82.2268H1804.75C1804.75 95.1598 1809.42 104.792 1817.5 111.58C1825.4 118.219 1836.22 121.852 1848.12 123.73L1849.36 115.828ZM1812.75 82.2268C1812.75 69.9084 1818.17 60.6853 1826.77 54.4159C1835.5 48.0568 1847.67 44.6479 1861.01 44.6479V36.6479C1846.43 36.6479 1832.48 40.356 1822.06 47.9502C1811.51 55.6341 1804.75 67.2004 1804.75 82.2268H1812.75ZM1861.01 44.6479C1878.64 44.6479 1893.19 48.5708 1909.06 58.0363L1913.16 51.166C1896.06 40.9658 1880.09 36.6479 1861.01 36.6479V44.6479ZM1907.65 52.597L1895.28 73.9483L1902.21 77.9566L1914.57 56.6053L1907.65 52.597ZM1900.85 72.5501C1890.08 65.8932 1876.81 60.8086 1861.57 60.8086V68.8086C1874.98 68.8086 1886.81 73.2758 1896.64 79.3548L1900.85 72.5501ZM1861.57 60.8086C1853.77 60.8086 1846.7 62.3378 1841.43 65.5328C1836.03 68.8094 1832.47 73.9281 1832.47 80.5411H1840.47C1840.47 77.2277 1842.11 74.4801 1845.58 72.372C1849.19 70.1823 1854.67 68.8086 1861.57 68.8086V60.8086ZM1832.47 80.5411C1832.47 83.8106 1833.46 86.6775 1835.34 89.079C1837.16 91.4055 1839.66 93.0907 1842.4 94.3793C1847.77 96.9092 1855.08 98.3575 1862.88 99.6574L1864.19 91.7662C1856.26 90.444 1850.03 89.1297 1845.81 87.1412C1843.75 86.1707 1842.43 85.1576 1841.64 84.145C1840.9 83.2075 1840.47 82.0944 1840.47 80.5411H1832.47ZM1862.89 99.6587L1870.28 100.876L1871.58 92.9823L1864.18 91.7649L1862.89 99.6587ZM1870.29 100.876C1881.7 102.748 1891.38 106.062 1898.14 111.313C1904.7 116.414 1908.7 123.477 1908.7 133.639H1916.7C1916.7 120.95 1911.52 111.578 1903.05 104.997C1894.78 98.566 1883.58 94.9495 1871.58 92.9819L1870.29 100.876ZM1908.7 133.639C1908.7 146.755 1903.01 156.242 1894.12 162.585C1885.08 169.032 1872.55 172.341 1859.04 172.341V180.341C1873.72 180.341 1888.01 176.768 1898.76 169.097C1909.66 161.323 1916.7 149.459 1916.7 133.639H1908.7ZM1990.99 174V178H1994.99V174H1990.99ZM1964.87 174H1960.87V178H1964.87V174ZM1964.87 122.214H1968.87V121.049L1968.24 120.066L1964.87 122.214ZM1914.39 42.8954V38.8954H1907.11L1911.02 45.0429L1914.39 42.8954ZM1945.11 42.8954L1948.55 40.8562L1947.39 38.8954H1945.11V42.8954ZM1978.07 98.5212L1974.63 100.56L1978.07 106.367L1981.51 100.56L1978.07 98.5212ZM2011.04 42.8954V38.8954H2008.76L2007.59 40.8562L2011.04 42.8954ZM2040.81 42.8954L2044.2 45.0211L2048.05 38.8954L2040.81 38.8954V42.8954ZM1990.99 122.307L1987.61 120.182L1986.99 121.156V122.307H1990.99ZM1990.99 170L1964.87 170V178L1990.99 178V170ZM1968.87 174V122.214H1960.87V174H1968.87ZM1968.24 120.066L1917.77 40.7479L1911.02 45.0429L1961.49 124.361L1968.24 120.066ZM1914.39 46.8954L1945.11 46.8954V38.8954L1914.39 38.8954V46.8954ZM1941.67 44.9346L1974.63 100.56L1981.51 96.482L1948.55 40.8562L1941.67 44.9346ZM1981.51 100.56L2014.48 44.9346L2007.59 40.8562L1974.63 96.482L1981.51 100.56ZM2011.04 46.8954H2040.81V38.8954H2011.04V46.8954ZM2037.43 40.7696L1987.61 120.182L1994.38 124.433L2044.2 45.0211L2037.43 40.7696ZM1986.99 122.307V174H1994.99V122.307H1986.99Z" fill="#B7B4FB" mask="url(#path-7-outside-2_7932_54653)"/>
</g>
</g>
</g>
<g id="Frame 1973342233">
<g id="Frame 1973340123_2">
<path id="Star 2_2" d="M2131.86 77.7031C2131.86 77.7031 2138.86 89.7012 2145.57 94.7594C2154.97 101.848 2173.99 102.982 2173.99 102.982C2173.99 102.982 2154.97 104.116 2145.57 111.204C2138.86 116.262 2131.86 128.26 2131.86 128.26C2131.86 128.26 2124.87 116.262 2118.16 111.204C2108.75 104.116 2089.73 102.982 2089.73 102.982C2089.73 102.982 2108.75 101.848 2118.16 94.7594C2124.87 89.7012 2131.86 77.7031 2131.86 77.7031Z" fill="#CCCAF0"/>
</g>
<g id="Group 1973340553_2">
<g id="Lavender_3" filter="url(#filter2_f_7932_54653)">
<path d="M2330.81 174L2235.39 174V42.8954L2261.51 42.8954V149.558L2330.81 149.558V174ZM2360.24 174H2332.99L2384.03 42.8954H2415.86L2466.9 174H2439L2427.57 143.471H2371.66L2360.24 174ZM2399.66 68.7417L2380.65 119.404H2418.58L2399.66 68.7417ZM2534.39 174H2502.65L2453.39 42.8954L2481.2 42.8954L2518.75 147.498L2556.49 42.8954H2583.65L2534.39 174ZM2692.9 174L2594.94 174V42.8954L2692.15 42.8954V66.8688H2621.07V95.8991H2688.87V119.873H2621.07V150.027L2692.9 150.027V174ZM2740.29 174H2714.06V42.8954L2738.51 42.8954L2805.09 130.455V42.8954L2831.31 42.8954V174H2806.77L2740.29 86.4408V174ZM2909.53 174H2855.5V42.8954L2909.53 42.8954C2950.55 42.8954 2977.61 68.929 2977.61 108.448C2977.61 147.966 2950.55 174 2909.53 174ZM2881.63 67.337V149.558H2909.25C2936.88 149.558 2950.27 132.234 2950.27 108.448C2950.27 84.3806 2936.88 67.337 2909.25 67.337L2881.63 67.337ZM3093.43 174L2995.47 174V42.8954L3092.68 42.8954V66.8688L3021.6 66.8688V95.8991L3089.4 95.8991V119.873L3021.6 119.873V150.027H3093.43V174ZM3140.72 174H3114.59V42.8954L3170.03 42.8954C3201.31 42.8954 3218.07 57.6915 3218.07 82.7886C3218.07 104.327 3203.09 119.03 3177.9 121.464L3218.26 174L3186.61 174L3148.4 121.839L3140.72 121.839V174ZM3140.72 66.9624V99.0831L3169.56 99.0831C3183.8 99.0831 3191.2 93.8389 3191.2 82.7886C3191.2 71.9257 3183.42 66.9624 3169.56 66.9624L3140.72 66.9624Z" fill="#CCCAF0"/>
</g>
<path id="Lavender_4" d="M2330.81 174L2235.39 174V42.8954L2261.51 42.8954V149.558L2330.81 149.558V174ZM2360.24 174H2332.99L2384.03 42.8954H2415.86L2466.9 174H2439L2427.57 143.471H2371.66L2360.24 174ZM2399.66 68.7417L2380.65 119.404H2418.58L2399.66 68.7417ZM2534.39 174H2502.65L2453.39 42.8954L2481.2 42.8954L2518.75 147.498L2556.49 42.8954H2583.65L2534.39 174ZM2692.9 174L2594.94 174V42.8954L2692.15 42.8954V66.8688H2621.07V95.8991H2688.87V119.873H2621.07V150.027L2692.9 150.027V174ZM2740.29 174H2714.06V42.8954L2738.51 42.8954L2805.09 130.455V42.8954L2831.31 42.8954V174H2806.77L2740.29 86.4408V174ZM2909.53 174H2855.5V42.8954L2909.53 42.8954C2950.55 42.8954 2977.61 68.929 2977.61 108.448C2977.61 147.966 2950.55 174 2909.53 174ZM2881.63 67.337V149.558H2909.25C2936.88 149.558 2950.27 132.234 2950.27 108.448C2950.27 84.3806 2936.88 67.337 2909.25 67.337L2881.63 67.337ZM3093.43 174L2995.47 174V42.8954L3092.68 42.8954V66.8688L3021.6 66.8688V95.8991L3089.4 95.8991V119.873L3021.6 119.873V150.027H3093.43V174ZM3140.72 174H3114.59V42.8954L3170.03 42.8954C3201.31 42.8954 3218.07 57.6915 3218.07 82.7886C3218.07 104.327 3203.09 119.03 3177.9 121.464L3218.26 174L3186.61 174L3148.4 121.839L3140.72 121.839V174ZM3140.72 66.9624V99.0831L3169.56 99.0831C3183.8 99.0831 3191.2 93.8389 3191.2 82.7886C3191.2 71.9257 3183.42 66.9624 3169.56 66.9624L3140.72 66.9624Z" fill="#CCCAF0"/>
</g>
<g id="Group 1973340558_2">
<g id="Fantasy_3" filter="url(#filter3_f_7932_54653)">
<mask id="path-13-outside-3_7932_54653" maskUnits="userSpaceOnUse" x="3258.25" y="36" width="852" height="145" fill="black">
<rect fill="white" x="3258.25" y="36" width="852" height="145"/>
<path d="M3288.58 174H3262.45V42.8954L3358.72 42.8954V66.9624L3288.58 66.9624V96.8356L3354.32 96.8356V120.903L3288.58 120.903V174ZM3385.11 174H3357.86L3408.89 42.8954H3440.73L3491.77 174H3463.86L3452.44 143.471H3396.53L3385.11 174ZM3424.53 68.7417L3405.52 119.404H3443.45L3424.53 68.7417ZM3529.29 174L3503.07 174V42.8954H3527.51L3594.09 130.455V42.8954H3620.32V174H3595.78L3529.29 86.4408V174ZM3699.38 174L3673.25 174V67.337L3632.61 67.337V42.8954L3740.02 42.8954V67.337L3699.38 67.337V174ZM3755.09 174H3727.84L3778.88 42.8954L3810.72 42.8954L3861.75 174H3833.85L3822.42 143.471H3766.52L3755.09 174ZM3794.52 68.7417L3775.51 119.404H3813.43L3794.52 68.7417ZM3920.67 176.341C3900.81 176.341 3879.46 170.535 3865.41 159.204L3878.99 138.134C3888.45 145.719 3903.9 152.274 3920.76 152.274C3935.27 152.274 3946.51 146.562 3946.51 136.448C3946.51 127.364 3936.96 123.993 3918.7 121.09L3910.36 119.779C3887.23 116.127 3870.38 105.919 3870.38 82.2268C3870.38 54.8821 3894.73 40.6479 3922.63 40.6479C3940.99 40.6479 3956.25 44.7683 3972.73 54.6011L3960.37 75.9525C3950.07 69.5845 3937.52 64.8086 3923.19 64.8086C3908.49 64.8086 3898.1 70.6146 3898.1 80.5411C3898.1 90.1867 3909.43 93.0897 3925.16 95.7118L3932.56 96.9292C3955.97 100.769 3974.32 110.789 3974.32 133.639C3974.32 162.575 3948.85 176.341 3920.67 176.341ZM4052.62 174L4026.49 174V122.214L3976.02 42.8954L4006.73 42.8954L4039.7 98.5212L4072.66 42.8954H4102.44L4052.62 122.307V174Z"/>
</mask>
<path d="M3288.58 174V178H3292.58V174H3288.58ZM3262.45 174H3258.45V178H3262.45V174ZM3262.45 42.8954V38.8954H3258.45V42.8954H3262.45ZM3358.72 42.8954H3362.72V38.8954H3358.72V42.8954ZM3358.72 66.9624V70.9624H3362.72V66.9624H3358.72ZM3288.58 66.9624V62.9624H3284.58V66.9624H3288.58ZM3288.58 96.8356H3284.58V100.836H3288.58V96.8356ZM3354.32 96.8356H3358.32V92.8356H3354.32V96.8356ZM3354.32 120.903V124.903H3358.32V120.903H3354.32ZM3288.58 120.903V116.903H3284.58V120.903H3288.58ZM3288.58 170H3262.45V178H3288.58V170ZM3266.45 174V42.8954H3258.45V174H3266.45ZM3262.45 46.8954L3358.72 46.8954V38.8954L3262.45 38.8954V46.8954ZM3354.72 42.8954V66.9624H3362.72V42.8954L3354.72 42.8954ZM3358.72 62.9624L3288.58 62.9624V70.9624L3358.72 70.9624V62.9624ZM3284.58 66.9624V96.8356L3292.58 96.8356V66.9624L3284.58 66.9624ZM3288.58 100.836L3354.32 100.836V92.8356L3288.58 92.8356V100.836ZM3350.32 96.8356V120.903H3358.32V96.8356H3350.32ZM3354.32 116.903L3288.58 116.903V124.903L3354.32 124.903V116.903ZM3284.58 120.903V174H3292.58V120.903L3284.58 120.903ZM3385.11 174V178H3387.88L3388.85 175.402L3385.11 174ZM3357.86 174L3354.13 172.549L3352.01 178H3357.86V174ZM3408.89 42.8954V38.8954H3406.16L3405.17 41.4443L3408.89 42.8954ZM3440.73 42.8954L3444.46 41.4443L3443.47 38.8954H3440.73V42.8954ZM3491.77 174V178H3497.62L3495.5 172.549L3491.77 174ZM3463.86 174L3460.12 175.402L3461.09 178H3463.86V174ZM3452.44 143.471L3456.19 142.069L3455.21 139.471H3452.44V143.471ZM3396.53 143.471V139.471H3393.76L3392.79 142.069L3396.53 143.471ZM3424.53 68.7417L3428.28 67.3425L3424.54 57.3312L3420.79 67.3365L3424.53 68.7417ZM3405.52 119.404L3401.78 117.999L3399.75 123.404H3405.52V119.404ZM3443.45 119.404V123.404H3449.21L3447.2 118.005L3443.45 119.404ZM3385.11 170H3357.86V178H3385.11V170ZM3361.59 175.451L3412.62 44.3464L3405.17 41.4443L3354.13 172.549L3361.59 175.451ZM3408.89 46.8954H3440.73V38.8954H3408.89V46.8954ZM3437.01 44.3464L3488.04 175.451L3495.5 172.549L3444.46 41.4443L3437.01 44.3464ZM3491.77 170H3463.86V178H3491.77V170ZM3467.61 172.598L3456.19 142.069L3448.69 144.873L3460.12 175.402L3467.61 172.598ZM3452.44 139.471H3396.53V147.471H3452.44V139.471ZM3392.79 142.069L3381.36 172.598L3388.85 175.402L3400.28 144.873L3392.79 142.069ZM3420.79 67.3365L3401.78 117.999L3409.27 120.81L3428.28 70.147L3420.79 67.3365ZM3405.52 123.404H3443.45V115.404H3405.52V123.404ZM3447.2 118.005L3428.28 67.3425L3420.79 70.1409L3439.7 120.803L3447.2 118.005ZM3529.29 174V178H3533.29V174H3529.29ZM3503.07 174H3499.07V178H3503.07V174ZM3503.07 42.8954V38.8954H3499.07V42.8954H3503.07ZM3527.51 42.8954L3530.7 40.4742L3529.5 38.8954H3527.51V42.8954ZM3594.09 130.455L3590.91 132.876L3598.09 142.323V130.455H3594.09ZM3594.09 42.8954V38.8954H3590.09V42.8954H3594.09ZM3620.32 42.8954L3624.32 42.8954V38.8954L3620.32 38.8954V42.8954ZM3620.32 174V178H3624.32V174H3620.32ZM3595.78 174L3592.59 176.419L3593.8 178H3595.78V174ZM3529.29 86.4408L3532.48 84.0218L3525.29 74.559V86.4408H3529.29ZM3529.29 170L3503.07 170V178L3529.29 178V170ZM3507.07 174V42.8954H3499.07V174H3507.07ZM3503.07 46.8954H3527.51V38.8954H3503.07V46.8954ZM3524.33 45.3166L3590.91 132.876L3597.28 128.033L3530.7 40.4742L3524.33 45.3166ZM3598.09 130.455V42.8954H3590.09V130.455H3598.09ZM3594.09 46.8954H3620.32V38.8954H3594.09V46.8954ZM3616.32 42.8954V174H3624.32V42.8954L3616.32 42.8954ZM3620.32 170H3595.78V178H3620.32V170ZM3598.97 171.581L3532.48 84.0218L3526.11 88.8599L3592.59 176.419L3598.97 171.581ZM3525.29 86.4408V174H3533.29V86.4408H3525.29ZM3699.38 174V178H3703.38V174H3699.38ZM3673.25 174H3669.25V178H3673.25V174ZM3673.25 67.337H3677.25V63.337H3673.25V67.337ZM3632.61 67.337H3628.61V71.337H3632.61V67.337ZM3632.61 42.8954V38.8954H3628.61V42.8954H3632.61ZM3740.02 42.8954H3744.02V38.8954H3740.02V42.8954ZM3740.02 67.337V71.337H3744.02V67.337H3740.02ZM3699.38 67.337V63.337H3695.38V67.337H3699.38ZM3699.38 170L3673.25 170V178L3699.38 178V170ZM3677.25 174V67.337H3669.25V174H3677.25ZM3673.25 63.337L3632.61 63.337V71.337L3673.25 71.337V63.337ZM3636.61 67.337V42.8954H3628.61V67.337H3636.61ZM3632.61 46.8954L3740.02 46.8954V38.8954L3632.61 38.8954V46.8954ZM3736.02 42.8954V67.337H3744.02V42.8954H3736.02ZM3740.02 63.337L3699.38 63.337V71.337L3740.02 71.337V63.337ZM3695.38 67.337V174H3703.38V67.337H3695.38ZM3755.09 174V178H3757.87L3758.84 175.402L3755.09 174ZM3727.84 174L3724.11 172.549L3721.99 178H3727.84V174ZM3778.88 42.8954V38.8954H3776.14L3775.15 41.4443L3778.88 42.8954ZM3810.72 42.8954L3814.44 41.4443L3813.45 38.8954H3810.72V42.8954ZM3861.75 174V178L3867.6 178L3865.48 172.549L3861.75 174ZM3833.85 174L3830.1 175.402L3831.07 178H3833.85V174ZM3822.42 143.471L3826.17 142.069L3825.2 139.471H3822.42V143.471ZM3766.52 143.471V139.471H3763.74L3762.77 142.069L3766.52 143.471ZM3794.52 68.7417L3798.26 67.3425L3794.53 57.3312L3790.77 67.3365L3794.52 68.7417ZM3775.51 119.404L3771.76 117.999L3769.73 123.404H3775.51V119.404ZM3813.43 119.404V123.404H3819.2L3817.18 118.005L3813.43 119.404ZM3755.09 170H3727.84V178H3755.09V170ZM3731.57 175.451L3782.61 44.3464L3775.15 41.4443L3724.11 172.549L3731.57 175.451ZM3778.88 46.8954L3810.72 46.8954V38.8954L3778.88 38.8954V46.8954ZM3806.99 44.3464L3858.03 175.451L3865.48 172.549L3814.44 41.4443L3806.99 44.3464ZM3861.75 170H3833.85V178H3861.75V170ZM3837.59 172.598L3826.17 142.069L3818.68 144.873L3830.1 175.402L3837.59 172.598ZM3822.42 139.471H3766.52V147.471H3822.42V139.471ZM3762.77 142.069L3751.35 172.598L3758.84 175.402L3770.26 144.873L3762.77 142.069ZM3790.77 67.3365L3771.76 117.999L3779.25 120.81L3798.26 70.147L3790.77 67.3365ZM3775.51 123.404H3813.43V115.404H3775.51V123.404ZM3817.18 118.005L3798.26 67.3425L3790.77 70.1409L3809.69 120.803L3817.18 118.005ZM3865.41 159.204L3862.05 157.037L3860.1 160.06L3862.9 162.317L3865.41 159.204ZM3878.99 138.134L3881.5 135.013L3878.03 132.237L3875.63 135.967L3878.99 138.134ZM3918.7 121.09L3919.33 117.14L3919.32 117.139L3918.7 121.09ZM3910.36 119.779L3909.74 123.73L3909.74 123.73L3910.36 119.779ZM3972.73 54.6011L3976.19 56.6053L3978.17 53.1887L3974.78 51.166L3972.73 54.6011ZM3960.37 75.9525L3958.27 79.3548L3961.77 81.5198L3963.83 77.9566L3960.37 75.9525ZM3925.16 95.7118L3924.5 99.6574L3924.51 99.6587L3925.16 95.7118ZM3932.56 96.9292L3931.91 100.876L3931.91 100.876L3932.56 96.9292ZM3920.67 172.341C3901.43 172.341 3881.06 166.688 3867.93 156.091L3862.9 162.317C3877.86 174.382 3900.19 180.341 3920.67 180.341V172.341ZM3868.78 161.371L3882.35 140.3L3875.63 135.967L3862.05 157.037L3868.78 161.371ZM3876.49 141.254C3886.62 149.376 3902.94 156.274 3920.76 156.274V148.274C3904.86 148.274 3890.28 142.062 3881.5 135.013L3876.49 141.254ZM3920.76 156.274C3928.47 156.274 3935.67 154.769 3941.09 151.61C3946.62 148.388 3950.51 143.264 3950.51 136.448H3942.51C3942.51 139.746 3940.78 142.535 3937.07 144.697C3933.24 146.923 3927.57 148.274 3920.76 148.274V156.274ZM3950.51 136.448C3950.51 133.42 3949.7 130.67 3947.98 128.286C3946.3 125.962 3943.95 124.23 3941.25 122.875C3935.96 120.225 3928.43 118.588 3919.33 117.14L3918.07 125.04C3927.22 126.495 3933.61 127.995 3937.66 130.027C3939.63 131.013 3940.8 132.009 3941.49 132.963C3942.13 133.856 3942.51 134.934 3942.51 136.448H3950.51ZM3919.32 117.139L3910.99 115.827L3909.74 123.73L3918.08 125.041L3919.32 117.139ZM3910.99 115.828C3899.75 114.054 3890.58 110.757 3884.27 105.455C3878.14 100.304 3874.38 92.9862 3874.38 82.2268H3866.38C3866.38 95.1598 3871.04 104.792 3879.12 111.58C3887.02 118.219 3897.84 121.852 3909.74 123.73L3910.99 115.828ZM3874.38 82.2268C3874.38 69.9084 3879.79 60.6853 3888.39 54.4159C3897.12 48.0568 3909.3 44.6479 3922.63 44.6479V36.6479C3908.06 36.6479 3894.11 40.356 3883.68 47.9502C3873.14 55.6341 3866.38 67.2004 3866.38 82.2268H3874.38ZM3922.63 44.6479C3940.26 44.6479 3954.82 48.5708 3970.68 58.0363L3974.78 51.166C3957.68 40.9658 3941.71 36.6479 3922.63 36.6479V44.6479ZM3969.27 52.597L3956.91 73.9483L3963.83 77.9566L3976.19 56.6053L3969.27 52.597ZM3962.47 72.5501C3951.71 65.8932 3938.44 60.8086 3923.19 60.8086V68.8086C3936.61 68.8086 3948.43 73.2758 3958.27 79.3548L3962.47 72.5501ZM3923.19 60.8086C3915.39 60.8086 3908.32 62.3378 3903.06 65.5328C3897.66 68.8094 3894.1 73.9281 3894.1 80.5411H3902.1C3902.1 77.2277 3903.73 74.4801 3907.21 72.372C3910.81 70.1823 3916.29 68.8086 3923.19 68.8086V60.8086ZM3894.1 80.5411C3894.1 83.8106 3895.08 86.6775 3896.96 89.079C3898.79 91.4055 3901.29 93.0907 3904.02 94.3793C3909.4 96.9092 3916.7 98.3575 3924.5 99.6574L3925.82 91.7662C3917.88 90.444 3911.66 89.1297 3907.43 87.1412C3905.37 86.1707 3904.05 85.1576 3903.26 84.145C3902.53 83.2075 3902.1 82.0944 3902.1 80.5411H3894.1ZM3924.51 99.6587L3931.91 100.876L3933.21 92.9823L3925.81 91.7649L3924.51 99.6587ZM3931.91 100.876C3943.33 102.748 3953.01 106.062 3959.77 111.313C3966.33 116.414 3970.32 123.477 3970.32 133.639H3978.32C3978.32 120.95 3973.14 111.578 3964.68 104.997C3956.4 98.566 3945.2 94.9495 3933.21 92.9819L3931.91 100.876ZM3970.32 133.639C3970.32 146.755 3964.63 156.242 3955.74 162.585C3946.71 169.032 3934.18 172.341 3920.67 172.341V180.341C3935.34 180.341 3949.64 176.768 3960.39 169.097C3971.28 161.323 3978.32 149.459 3978.32 133.639H3970.32ZM4052.62 174V178H4056.62V174H4052.62ZM4026.49 174H4022.49V178H4026.49V174ZM4026.49 122.214H4030.49V121.049L4029.87 120.066L4026.49 122.214ZM3976.02 42.8954V38.8954H3968.73L3972.64 45.0429L3976.02 42.8954ZM4006.73 42.8954L4010.17 40.8562L4009.01 38.8954H4006.73V42.8954ZM4039.7 98.5212L4036.26 100.56L4039.7 106.367L4043.14 100.56L4039.7 98.5212ZM4072.66 42.8954V38.8954H4070.38L4069.22 40.8562L4072.66 42.8954ZM4102.44 42.8954L4105.83 45.0211L4109.67 38.8954L4102.44 38.8954V42.8954ZM4052.62 122.307L4049.23 120.182L4048.62 121.156V122.307H4052.62ZM4052.62 170L4026.49 170V178L4052.62 178V170ZM4030.49 174V122.214H4022.49V174H4030.49ZM4029.87 120.066L3979.39 40.7479L3972.64 45.0429L4023.12 124.361L4029.87 120.066ZM3976.02 46.8954L4006.73 46.8954V38.8954L3976.02 38.8954V46.8954ZM4003.29 44.9346L4036.26 100.56L4043.14 96.482L4010.17 40.8562L4003.29 44.9346ZM4043.14 100.56L4076.1 44.9346L4069.22 40.8562L4036.26 96.482L4043.14 100.56ZM4072.66 46.8954H4102.44V38.8954H4072.66V46.8954ZM4099.05 40.7696L4049.23 120.182L4056.01 124.433L4105.83 45.0211L4099.05 40.7696ZM4048.62 122.307V174H4056.62V122.307H4048.62Z" fill="#CCCAF0" mask="url(#path-13-outside-3_7932_54653)"/>
</g>
<g id="Fantasy_4">
<mask id="path-15-outside-4_7932_54653" maskUnits="userSpaceOnUse" x="3258.25" y="36" width="852" height="145" fill="black">
<rect fill="white" x="3258.25" y="36" width="852" height="145"/>
<path d="M3288.58 174H3262.45V42.8954L3358.72 42.8954V66.9624L3288.58 66.9624V96.8356L3354.32 96.8356V120.903L3288.58 120.903V174ZM3385.11 174H3357.86L3408.89 42.8954H3440.73L3491.77 174H3463.86L3452.44 143.471H3396.53L3385.11 174ZM3424.53 68.7417L3405.52 119.404H3443.45L3424.53 68.7417ZM3529.29 174L3503.07 174V42.8954H3527.51L3594.09 130.455V42.8954H3620.32V174H3595.78L3529.29 86.4408V174ZM3699.38 174L3673.25 174V67.337L3632.61 67.337V42.8954L3740.02 42.8954V67.337L3699.38 67.337V174ZM3755.09 174H3727.84L3778.88 42.8954L3810.72 42.8954L3861.75 174H3833.85L3822.42 143.471H3766.52L3755.09 174ZM3794.52 68.7417L3775.51 119.404H3813.43L3794.52 68.7417ZM3920.67 176.341C3900.81 176.341 3879.46 170.535 3865.41 159.204L3878.99 138.134C3888.45 145.719 3903.9 152.274 3920.76 152.274C3935.27 152.274 3946.51 146.562 3946.51 136.448C3946.51 127.364 3936.96 123.993 3918.7 121.09L3910.36 119.779C3887.23 116.127 3870.38 105.919 3870.38 82.2268C3870.38 54.8821 3894.73 40.6479 3922.63 40.6479C3940.99 40.6479 3956.25 44.7683 3972.73 54.6011L3960.37 75.9525C3950.07 69.5845 3937.52 64.8086 3923.19 64.8086C3908.49 64.8086 3898.1 70.6146 3898.1 80.5411C3898.1 90.1867 3909.43 93.0897 3925.16 95.7118L3932.56 96.9292C3955.97 100.769 3974.32 110.789 3974.32 133.639C3974.32 162.575 3948.85 176.341 3920.67 176.341ZM4052.62 174L4026.49 174V122.214L3976.02 42.8954L4006.73 42.8954L4039.7 98.5212L4072.66 42.8954H4102.44L4052.62 122.307V174Z"/>
</mask>
<path d="M3288.58 174V178H3292.58V174H3288.58ZM3262.45 174H3258.45V178H3262.45V174ZM3262.45 42.8954V38.8954H3258.45V42.8954H3262.45ZM3358.72 42.8954H3362.72V38.8954H3358.72V42.8954ZM3358.72 66.9624V70.9624H3362.72V66.9624H3358.72ZM3288.58 66.9624V62.9624H3284.58V66.9624H3288.58ZM3288.58 96.8356H3284.58V100.836H3288.58V96.8356ZM3354.32 96.8356H3358.32V92.8356H3354.32V96.8356ZM3354.32 120.903V124.903H3358.32V120.903H3354.32ZM3288.58 120.903V116.903H3284.58V120.903H3288.58ZM3288.58 170H3262.45V178H3288.58V170ZM3266.45 174V42.8954H3258.45V174H3266.45ZM3262.45 46.8954L3358.72 46.8954V38.8954L3262.45 38.8954V46.8954ZM3354.72 42.8954V66.9624H3362.72V42.8954L3354.72 42.8954ZM3358.72 62.9624L3288.58 62.9624V70.9624L3358.72 70.9624V62.9624ZM3284.58 66.9624V96.8356L3292.58 96.8356V66.9624L3284.58 66.9624ZM3288.58 100.836L3354.32 100.836V92.8356L3288.58 92.8356V100.836ZM3350.32 96.8356V120.903H3358.32V96.8356H3350.32ZM3354.32 116.903L3288.58 116.903V124.903L3354.32 124.903V116.903ZM3284.58 120.903V174H3292.58V120.903L3284.58 120.903ZM3385.11 174V178H3387.88L3388.85 175.402L3385.11 174ZM3357.86 174L3354.13 172.549L3352.01 178H3357.86V174ZM3408.89 42.8954V38.8954H3406.16L3405.17 41.4443L3408.89 42.8954ZM3440.73 42.8954L3444.46 41.4443L3443.47 38.8954H3440.73V42.8954ZM3491.77 174V178H3497.62L3495.5 172.549L3491.77 174ZM3463.86 174L3460.12 175.402L3461.09 178H3463.86V174ZM3452.44 143.471L3456.19 142.069L3455.21 139.471H3452.44V143.471ZM3396.53 143.471V139.471H3393.76L3392.79 142.069L3396.53 143.471ZM3424.53 68.7417L3428.28 67.3425L3424.54 57.3312L3420.79 67.3365L3424.53 68.7417ZM3405.52 119.404L3401.78 117.999L3399.75 123.404H3405.52V119.404ZM3443.45 119.404V123.404H3449.21L3447.2 118.005L3443.45 119.404ZM3385.11 170H3357.86V178H3385.11V170ZM3361.59 175.451L3412.62 44.3464L3405.17 41.4443L3354.13 172.549L3361.59 175.451ZM3408.89 46.8954H3440.73V38.8954H3408.89V46.8954ZM3437.01 44.3464L3488.04 175.451L3495.5 172.549L3444.46 41.4443L3437.01 44.3464ZM3491.77 170H3463.86V178H3491.77V170ZM3467.61 172.598L3456.19 142.069L3448.69 144.873L3460.12 175.402L3467.61 172.598ZM3452.44 139.471H3396.53V147.471H3452.44V139.471ZM3392.79 142.069L3381.36 172.598L3388.85 175.402L3400.28 144.873L3392.79 142.069ZM3420.79 67.3365L3401.78 117.999L3409.27 120.81L3428.28 70.147L3420.79 67.3365ZM3405.52 123.404H3443.45V115.404H3405.52V123.404ZM3447.2 118.005L3428.28 67.3425L3420.79 70.1409L3439.7 120.803L3447.2 118.005ZM3529.29 174V178H3533.29V174H3529.29ZM3503.07 174H3499.07V178H3503.07V174ZM3503.07 42.8954V38.8954H3499.07V42.8954H3503.07ZM3527.51 42.8954L3530.7 40.4742L3529.5 38.8954H3527.51V42.8954ZM3594.09 130.455L3590.91 132.876L3598.09 142.323V130.455H3594.09ZM3594.09 42.8954V38.8954H3590.09V42.8954H3594.09ZM3620.32 42.8954L3624.32 42.8954V38.8954L3620.32 38.8954V42.8954ZM3620.32 174V178H3624.32V174H3620.32ZM3595.78 174L3592.59 176.419L3593.8 178H3595.78V174ZM3529.29 86.4408L3532.48 84.0218L3525.29 74.559V86.4408H3529.29ZM3529.29 170L3503.07 170V178L3529.29 178V170ZM3507.07 174V42.8954H3499.07V174H3507.07ZM3503.07 46.8954H3527.51V38.8954H3503.07V46.8954ZM3524.33 45.3166L3590.91 132.876L3597.28 128.033L3530.7 40.4742L3524.33 45.3166ZM3598.09 130.455V42.8954H3590.09V130.455H3598.09ZM3594.09 46.8954H3620.32V38.8954H3594.09V46.8954ZM3616.32 42.8954V174H3624.32V42.8954L3616.32 42.8954ZM3620.32 170H3595.78V178H3620.32V170ZM3598.97 171.581L3532.48 84.0218L3526.11 88.8599L3592.59 176.419L3598.97 171.581ZM3525.29 86.4408V174H3533.29V86.4408H3525.29ZM3699.38 174V178H3703.38V174H3699.38ZM3673.25 174H3669.25V178H3673.25V174ZM3673.25 67.337H3677.25V63.337H3673.25V67.337ZM3632.61 67.337H3628.61V71.337H3632.61V67.337ZM3632.61 42.8954V38.8954H3628.61V42.8954H3632.61ZM3740.02 42.8954H3744.02V38.8954H3740.02V42.8954ZM3740.02 67.337V71.337H3744.02V67.337H3740.02ZM3699.38 67.337V63.337H3695.38V67.337H3699.38ZM3699.38 170L3673.25 170V178L3699.38 178V170ZM3677.25 174V67.337H3669.25V174H3677.25ZM3673.25 63.337L3632.61 63.337V71.337L3673.25 71.337V63.337ZM3636.61 67.337V42.8954H3628.61V67.337H3636.61ZM3632.61 46.8954L3740.02 46.8954V38.8954L3632.61 38.8954V46.8954ZM3736.02 42.8954V67.337H3744.02V42.8954H3736.02ZM3740.02 63.337L3699.38 63.337V71.337L3740.02 71.337V63.337ZM3695.38 67.337V174H3703.38V67.337H3695.38ZM3755.09 174V178H3757.87L3758.84 175.402L3755.09 174ZM3727.84 174L3724.11 172.549L3721.99 178H3727.84V174ZM3778.88 42.8954V38.8954H3776.14L3775.15 41.4443L3778.88 42.8954ZM3810.72 42.8954L3814.44 41.4443L3813.45 38.8954H3810.72V42.8954ZM3861.75 174V178L3867.6 178L3865.48 172.549L3861.75 174ZM3833.85 174L3830.1 175.402L3831.07 178H3833.85V174ZM3822.42 143.471L3826.17 142.069L3825.2 139.471H3822.42V143.471ZM3766.52 143.471V139.471H3763.74L3762.77 142.069L3766.52 143.471ZM3794.52 68.7417L3798.26 67.3425L3794.53 57.3312L3790.77 67.3365L3794.52 68.7417ZM3775.51 119.404L3771.76 117.999L3769.73 123.404H3775.51V119.404ZM3813.43 119.404V123.404H3819.2L3817.18 118.005L3813.43 119.404ZM3755.09 170H3727.84V178H3755.09V170ZM3731.57 175.451L3782.61 44.3464L3775.15 41.4443L3724.11 172.549L3731.57 175.451ZM3778.88 46.8954L3810.72 46.8954V38.8954L3778.88 38.8954V46.8954ZM3806.99 44.3464L3858.03 175.451L3865.48 172.549L3814.44 41.4443L3806.99 44.3464ZM3861.75 170H3833.85V178H3861.75V170ZM3837.59 172.598L3826.17 142.069L3818.68 144.873L3830.1 175.402L3837.59 172.598ZM3822.42 139.471H3766.52V147.471H3822.42V139.471ZM3762.77 142.069L3751.35 172.598L3758.84 175.402L3770.26 144.873L3762.77 142.069ZM3790.77 67.3365L3771.76 117.999L3779.25 120.81L3798.26 70.147L3790.77 67.3365ZM3775.51 123.404H3813.43V115.404H3775.51V123.404ZM3817.18 118.005L3798.26 67.3425L3790.77 70.1409L3809.69 120.803L3817.18 118.005ZM3865.41 159.204L3862.05 157.037L3860.1 160.06L3862.9 162.317L3865.41 159.204ZM3878.99 138.134L3881.5 135.013L3878.03 132.237L3875.63 135.967L3878.99 138.134ZM3918.7 121.09L3919.33 117.14L3919.32 117.139L3918.7 121.09ZM3910.36 119.779L3909.74 123.73L3909.74 123.73L3910.36 119.779ZM3972.73 54.6011L3976.19 56.6053L3978.17 53.1887L3974.78 51.166L3972.73 54.6011ZM3960.37 75.9525L3958.27 79.3548L3961.77 81.5198L3963.83 77.9566L3960.37 75.9525ZM3925.16 95.7118L3924.5 99.6574L3924.51 99.6587L3925.16 95.7118ZM3932.56 96.9292L3931.91 100.876L3931.91 100.876L3932.56 96.9292ZM3920.67 172.341C3901.43 172.341 3881.06 166.688 3867.93 156.091L3862.9 162.317C3877.86 174.382 3900.19 180.341 3920.67 180.341V172.341ZM3868.78 161.371L3882.35 140.3L3875.63 135.967L3862.05 157.037L3868.78 161.371ZM3876.49 141.254C3886.62 149.376 3902.94 156.274 3920.76 156.274V148.274C3904.86 148.274 3890.28 142.062 3881.5 135.013L3876.49 141.254ZM3920.76 156.274C3928.47 156.274 3935.67 154.769 3941.09 151.61C3946.62 148.388 3950.51 143.264 3950.51 136.448H3942.51C3942.51 139.746 3940.78 142.535 3937.07 144.697C3933.24 146.923 3927.57 148.274 3920.76 148.274V156.274ZM3950.51 136.448C3950.51 133.42 3949.7 130.67 3947.98 128.286C3946.3 125.962 3943.95 124.23 3941.25 122.875C3935.96 120.225 3928.43 118.588 3919.33 117.14L3918.07 125.04C3927.22 126.495 3933.61 127.995 3937.66 130.027C3939.63 131.013 3940.8 132.009 3941.49 132.963C3942.13 133.856 3942.51 134.934 3942.51 136.448H3950.51ZM3919.32 117.139L3910.99 115.827L3909.74 123.73L3918.08 125.041L3919.32 117.139ZM3910.99 115.828C3899.75 114.054 3890.58 110.757 3884.27 105.455C3878.14 100.304 3874.38 92.9862 3874.38 82.2268H3866.38C3866.38 95.1598 3871.04 104.792 3879.12 111.58C3887.02 118.219 3897.84 121.852 3909.74 123.73L3910.99 115.828ZM3874.38 82.2268C3874.38 69.9084 3879.79 60.6853 3888.39 54.4159C3897.12 48.0568 3909.3 44.6479 3922.63 44.6479V36.6479C3908.06 36.6479 3894.11 40.356 3883.68 47.9502C3873.14 55.6341 3866.38 67.2004 3866.38 82.2268H3874.38ZM3922.63 44.6479C3940.26 44.6479 3954.82 48.5708 3970.68 58.0363L3974.78 51.166C3957.68 40.9658 3941.71 36.6479 3922.63 36.6479V44.6479ZM3969.27 52.597L3956.91 73.9483L3963.83 77.9566L3976.19 56.6053L3969.27 52.597ZM3962.47 72.5501C3951.71 65.8932 3938.44 60.8086 3923.19 60.8086V68.8086C3936.61 68.8086 3948.43 73.2758 3958.27 79.3548L3962.47 72.5501ZM3923.19 60.8086C3915.39 60.8086 3908.32 62.3378 3903.06 65.5328C3897.66 68.8094 3894.1 73.9281 3894.1 80.5411H3902.1C3902.1 77.2277 3903.73 74.4801 3907.21 72.372C3910.81 70.1823 3916.29 68.8086 3923.19 68.8086V60.8086ZM3894.1 80.5411C3894.1 83.8106 3895.08 86.6775 3896.96 89.079C3898.79 91.4055 3901.29 93.0907 3904.02 94.3793C3909.4 96.9092 3916.7 98.3575 3924.5 99.6574L3925.82 91.7662C3917.88 90.444 3911.66 89.1297 3907.43 87.1412C3905.37 86.1707 3904.05 85.1576 3903.26 84.145C3902.53 83.2075 3902.1 82.0944 3902.1 80.5411H3894.1ZM3924.51 99.6587L3931.91 100.876L3933.21 92.9823L3925.81 91.7649L3924.51 99.6587ZM3931.91 100.876C3943.33 102.748 3953.01 106.062 3959.77 111.313C3966.33 116.414 3970.32 123.477 3970.32 133.639H3978.32C3978.32 120.95 3973.14 111.578 3964.68 104.997C3956.4 98.566 3945.2 94.9495 3933.21 92.9819L3931.91 100.876ZM3970.32 133.639C3970.32 146.755 3964.63 156.242 3955.74 162.585C3946.71 169.032 3934.18 172.341 3920.67 172.341V180.341C3935.34 180.341 3949.64 176.768 3960.39 169.097C3971.28 161.323 3978.32 149.459 3978.32 133.639H3970.32ZM4052.62 174V178H4056.62V174H4052.62ZM4026.49 174H4022.49V178H4026.49V174ZM4026.49 122.214H4030.49V121.049L4029.87 120.066L4026.49 122.214ZM3976.02 42.8954V38.8954H3968.73L3972.64 45.0429L3976.02 42.8954ZM4006.73 42.8954L4010.17 40.8562L4009.01 38.8954H4006.73V42.8954ZM4039.7 98.5212L4036.26 100.56L4039.7 106.367L4043.14 100.56L4039.7 98.5212ZM4072.66 42.8954V38.8954H4070.38L4069.22 40.8562L4072.66 42.8954ZM4102.44 42.8954L4105.83 45.0211L4109.67 38.8954L4102.44 38.8954V42.8954ZM4052.62 122.307L4049.23 120.182L4048.62 121.156V122.307H4052.62ZM4052.62 170L4026.49 170V178L4052.62 178V170ZM4030.49 174V122.214H4022.49V174H4030.49ZM4029.87 120.066L3979.39 40.7479L3972.64 45.0429L4023.12 124.361L4029.87 120.066ZM3976.02 46.8954L4006.73 46.8954V38.8954L3976.02 38.8954V46.8954ZM4003.29 44.9346L4036.26 100.56L4043.14 96.482L4010.17 40.8562L4003.29 44.9346ZM4043.14 100.56L4076.1 44.9346L4069.22 40.8562L4036.26 96.482L4043.14 100.56ZM4072.66 46.8954H4102.44V38.8954H4072.66V46.8954ZM4099.05 40.7696L4049.23 120.182L4056.01 124.433L4105.83 45.0211L4099.05 40.7696ZM4048.62 122.307V174H4056.62V122.307H4048.62Z" fill="#CCCAF0" mask="url(#path-15-outside-4_7932_54653)"/>
</g>
</g>
</g>
</g>
</g>
<defs>
<filter id="filter0_f_7932_54653" x="165.762" y="34.8945" width="998.872" height="147.105" filterUnits="userSpaceOnUse" color-interpolation-filters="sRGB">
<feFlood flood-opacity="0" result="BackgroundImageFix"/>
<feBlend mode="normal" in="SourceGraphic" in2="BackgroundImageFix" result="shape"/>
<feGaussianBlur stdDeviation="4" result="effect1_foregroundBlur_7932_54653"/>
</filter>
<filter id="filter1_f_7932_54653" x="1192.83" y="32.6484" width="855.988" height="151.691" filterUnits="userSpaceOnUse" color-interpolation-filters="sRGB">
<feFlood flood-opacity="0" result="BackgroundImageFix"/>
<feBlend mode="normal" in="SourceGraphic" in2="BackgroundImageFix" result="shape"/>
<feGaussianBlur stdDeviation="4" result="effect1_foregroundBlur_7932_54653"/>
</filter>
<filter id="filter2_f_7932_54653" x="2227.39" y="34.8945" width="998.872" height="147.105" filterUnits="userSpaceOnUse" color-interpolation-filters="sRGB">
<feFlood flood-opacity="0" result="BackgroundImageFix"/>
<feBlend mode="normal" in="SourceGraphic" in2="BackgroundImageFix" result="shape"/>
<feGaussianBlur stdDeviation="4" result="effect1_foregroundBlur_7932_54653"/>
</filter>
<filter id="filter3_f_7932_54653" x="3254.45" y="32.6484" width="855.988" height="151.691" filterUnits="userSpaceOnUse" color-interpolation-filters="sRGB">
<feFlood flood-opacity="0" result="BackgroundImageFix"/>
<feBlend mode="normal" in="SourceGraphic" in2="BackgroundImageFix" result="shape"/>
<feGaussianBlur stdDeviation="4" result="effect1_foregroundBlur_7932_54653"/>
</filter>
<clipPath id="clip0_7932_54653">
<rect width="3564" height="206" fill="white"/>
</clipPath>
</defs>
</svg>
