<svg width="74" height="72" viewBox="0 0 74 72" fill="none" xmlns="http://www.w3.org/2000/svg">
<path d="M36.8278 13.6797C36.8278 13.6797 41.7795 24.3589 46.5298 28.8611C53.1868 35.1704 66.6555 36.1797 66.6555 36.1797C66.6555 36.1797 53.1868 37.189 46.5298 43.4982C41.7795 48.0005 36.8278 58.6797 36.8278 58.6797C36.8278 58.6797 31.8761 48.0005 27.1257 43.4982C20.4687 37.189 7 36.1797 7 36.1797C7 36.1797 20.4687 35.1704 27.1257 28.8611C31.8761 24.3589 36.8278 13.6797 36.8278 13.6797Z" fill="white"/>
<g filter="url(#filter0_d_89_5603)">
<path d="M46.6 48.9785L46.6 48.8985C46.6 47.9378 47.24 47.4575 48.12 47.4575L48.28 47.4575C49.24 47.4575 49.96 46.737 49.96 45.7763L49.96 45.6162C49.96 44.7356 50.44 44.0951 51.4 44.0951L51.48 44.0951C52.44 44.0951 53 43.5348 53 42.5741L53 29.6052C53 28.6445 52.44 28.0841 51.48 28.0841L51.4 28.0841C50.44 28.0841 49.96 27.4437 49.96 26.5631L49.96 26.4029C49.96 25.4423 49.24 24.7218 48.28 24.7218L48.12 24.7218C47.24 24.7218 46.6 24.2415 46.6 23.2808L46.6 23.2007C46.6 22.2401 46.04 21.6797 45.08 21.6797L28.92 21.6797C27.96 21.6797 27.4 22.2401 27.4 23.2007L27.4 23.2808C27.4 24.2415 26.76 24.7218 25.88 24.7218L25.72 24.7218C24.76 24.7218 24.04 25.4423 24.04 26.4029L24.04 26.5631C24.04 27.4437 23.56 28.0841 22.6 28.0841L22.52 28.0841C21.56 28.0841 21 28.6445 21 29.6052L21 42.5741C21 43.5348 21.56 44.0951 22.52 44.0951L22.6 44.0951C23.56 44.0951 24.04 44.7356 24.04 45.6162L24.04 45.7763C24.04 46.737 24.76 47.4575 25.72 47.4575L25.88 47.4575C26.76 47.4575 27.4 47.9378 27.4 48.8985L27.4 48.9785C27.4 49.9392 27.96 50.4996 28.92 50.4996L45.08 50.4996C46.04 50.4996 46.6 49.9392 46.6 48.9785Z" stroke="white" stroke-width="1.72097" shape-rendering="crispEdges"/>
</g>
<defs>
<filter id="filter0_d_89_5603" x="0.139526" y="0.819336" width="73.7209" height="70.5405" filterUnits="userSpaceOnUse" color-interpolation-filters="sRGB">
<feFlood flood-opacity="0" result="BackgroundImageFix"/>
<feColorMatrix in="SourceAlpha" type="matrix" values="0 0 0 0 0 0 0 0 0 0 0 0 0 0 0 0 0 0 127 0" result="hardAlpha"/>
<feOffset/>
<feGaussianBlur stdDeviation="10"/>
<feComposite in2="hardAlpha" operator="out"/>
<feColorMatrix type="matrix" values="0 0 0 0 1 0 0 0 0 0.027451 0 0 0 0 0.235294 0 0 0 1 0"/>
<feBlend mode="normal" in2="BackgroundImageFix" result="effect1_dropShadow_89_5603"/>
<feBlend mode="normal" in="SourceGraphic" in2="effect1_dropShadow_89_5603" result="shape"/>
</filter>
</defs>
</svg>
